<?xml version="1.0" standalone="no"?>
<!DOCTYPE svg PUBLIC "-//W3C//DTD SVG 20010904//EN"
 "http://www.w3.org/TR/2001/REC-SVG-20010904/DTD/svg10.dtd">
<svg version="1.0" xmlns="http://www.w3.org/2000/svg"
 width="820.000000pt" height="820.000000pt" viewBox="0 0 820.000000 820.000000"
 preserveAspectRatio="xMidYMid meet">
<metadata>
Created by potrace 1.16, written by Peter Selinger 2001-2019
</metadata>
<g transform="translate(0.000000,820.000000) scale(0.100000,-0.100000)"
fill="#000000" stroke="none">
<path d="M3316 8088 c-10 -6 -42 -7 -72 -3 -60 7 -158 -20 -192 -52 -31 -32
-164 -89 -226 -98 -25 -4 -46 -11 -46 -15 0 -4 -60 -37 -132 -73 -114 -56
-144 -66 -208 -72 -67 -7 -120 -26 -175 -64 -22 -15 -123 -50 -162 -55 -66
-10 -111 -36 -143 -85 -17 -24 -45 -61 -64 -81 -18 -20 -37 -47 -41 -61 -4
-13 -13 -33 -20 -44 -6 -11 -18 -38 -25 -60 -7 -22 -21 -55 -31 -73 -10 -18
-24 -54 -30 -80 -16 -72 -49 -173 -70 -217 -24 -53 -36 -109 -49 -233 -10 -99
-38 -187 -75 -232 -23 -28 -27 -71 -10 -96 15 -23 14 -28 -14 -87 -19 -41 -30
-83 -33 -125 -4 -61 -6 -64 -61 -120 -48 -49 -58 -66 -70 -116 -11 -49 -11
-72 0 -130 7 -39 20 -83 28 -98 8 -14 18 -56 21 -92 l6 -66 -35 -20 c-18 -11
-48 -38 -66 -61 -32 -39 -33 -42 -26 -106 7 -66 19 -103 56 -175 30 -59 24
-148 -10 -148 -21 0 -111 56 -111 69 0 12 -49 20 -57 9 -3 -6 -5 -38 -4 -72 0
-33 -3 -76 -8 -94 -12 -40 -3 -67 44 -138 67 -101 198 -134 445 -112 l35 3 -2
-85 c-2 -85 -25 -187 -50 -225 -23 -35 -15 -74 29 -136 40 -58 41 -62 40 -132
-2 -73 10 -111 62 -189 13 -20 16 -37 11 -71 -6 -39 -4 -46 16 -61 13 -9 38
-16 56 -16 39 0 51 -18 51 -78 1 -24 8 -54 16 -67 34 -52 124 -128 183 -156
62 -29 133 -94 162 -147 8 -15 20 -32 27 -40 8 -7 14 -20 14 -28 0 -16 28 -76
40 -84 4 -3 15 -20 24 -37 9 -18 43 -51 76 -74 66 -47 66 -46 5 -118 -19 -24
-35 -47 -35 -52 0 -5 -12 -15 -27 -22 -16 -6 -67 -35 -115 -64 -94 -57 -131
-75 -313 -153 -227 -97 -318 -169 -433 -340 -81 -120 -182 -202 -352 -289 -74
-38 -188 -96 -253 -130 -140 -73 -316 -148 -464 -197 -151 -50 -215 -93 -309
-209 -91 -113 -146 -213 -142 -258 3 -30 7 -25 52 62 28 52 75 126 106 165
101 127 177 182 289 211 101 26 323 124 601 267 320 165 407 229 489 363 60
99 152 193 235 244 31 19 130 65 219 103 312 133 401 187 520 316 52 57 108
113 124 125 l30 22 -14 60 c-8 33 -23 97 -33 142 -11 45 -20 96 -20 114 0 28
2 30 16 18 10 -8 14 -23 12 -40 -3 -16 -1 -26 3 -23 4 2 14 1 23 -2 13 -5 15
-17 12 -55 -3 -29 -1 -47 5 -44 5 4 9 -1 9 -9 0 -9 5 -17 10 -17 6 -1 15 -3
20 -4 6 -1 15 -3 20 -4 15 -2 12 -31 -2 -32 -7 0 -1 -5 14 -11 27 -9 32 -28
14 -56 -13 -22 2 -27 23 -8 18 17 20 17 30 -1 10 -21 3 -37 -16 -39 -28 -2
-33 -4 -33 -14 0 -5 6 -7 13 -4 19 7 67 -34 60 -51 -3 -8 -9 -13 -13 -10 -5 3
-12 0 -16 -6 -4 -8 -3 -9 5 -5 6 4 14 0 17 -8 3 -9 10 -14 14 -11 11 7 21 -22
14 -40 -7 -17 -24 -20 -24 -4 0 16 -23 34 -47 36 -13 2 -23 -2 -23 -8 0 -5 4
-8 8 -5 5 3 18 -1 30 -9 14 -11 20 -24 18 -47 -1 -23 6 -40 22 -55 26 -26 33
-28 50 -11 9 9 12 9 12 0 0 -7 7 -12 15 -12 20 0 19 10 -2 27 -16 13 -15 13 6
3 18 -9 22 -9 16 0 -4 6 1 18 11 25 25 19 34 18 34 0 0 -8 5 -15 11 -15 6 0 9
-6 6 -12 -2 -7 -13 -12 -24 -10 -10 1 -28 -6 -37 -17 -10 -11 -22 -18 -26 -16
-4 3 -11 -2 -14 -11 -3 -8 -2 -12 3 -9 13 7 19 -25 10 -52 -8 -21 -6 -22 21
-16 21 4 30 2 30 -7 0 -8 2 -11 5 -8 10 9 -7 38 -22 38 -8 0 -12 4 -8 10 3 5
12 7 20 4 25 -10 38 6 18 22 -17 13 -17 15 -1 24 9 6 24 17 32 25 8 8 18 15
22 15 4 0 12 6 18 13 6 7 10 10 9 8 -1 -2 2 -11 7 -21 8 -14 5 -16 -14 -13
-15 3 -25 -1 -29 -12 -4 -9 -3 -14 3 -10 6 3 10 3 10 -2 0 -4 15 -9 33 -10 26
-2 33 1 33 16 0 11 -4 17 -8 15 -4 -3 -8 7 -8 23 l0 28 27 -30 c28 -30 33 -76
11 -102 -7 -9 -7 -18 2 -28 11 -14 14 -13 27 5 8 11 12 24 8 29 -8 14 16 61
32 61 8 0 13 -12 13 -35 0 -28 4 -35 16 -33 10 2 20 -7 25 -22 8 -23 8 -23 -5
-7 -12 15 -14 16 -20 2 -4 -11 -13 -14 -31 -9 -34 8 -32 -2 5 -21 34 -17 44
-19 35 -5 -3 6 1 10 10 10 9 0 13 -4 10 -10 -3 -5 -2 -10 4 -10 5 0 12 5 14
10 3 6 4 5 3 -2 -1 -7 -12 -14 -24 -16 -38 -6 -27 -43 23 -77 28 -19 40 -32
32 -37 -6 -4 -18 -1 -27 5 -13 11 -13 10 -1 -6 8 -10 19 -16 25 -14 7 3 11 -8
10 -27 -1 -27 -5 -31 -27 -30 -15 0 -27 -3 -27 -7 0 -12 43 -18 61 -8 33 17
40 11 33 -27 -6 -32 -5 -36 12 -30 11 3 26 1 34 -4 13 -8 12 -10 -4 -10 -17 0
-18 -2 -4 -17 9 -10 14 -23 11 -29 -5 -14 25 -27 39 -17 7 4 8 1 3 -8 -8 -12
-6 -12 8 0 14 11 17 11 17 -1 0 -8 -6 -20 -12 -28 -11 -12 -10 -12 5 -1 12 10
17 10 17 2 0 -8 8 -10 23 -6 15 4 18 3 9 -3 -8 -5 -14 -13 -15 -18 -1 -5 -6
-7 -12 -5 -15 5 -38 9 -55 10 -12 1 -13 3 -1 10 8 5 9 11 3 15 -6 3 -13 2 -17
-3 -3 -6 -12 -8 -19 -5 -7 3 -16 -2 -19 -10 -4 -10 -1 -16 7 -16 8 0 16 -5 18
-11 2 -5 15 -12 28 -13 48 -5 72 -17 66 -32 -3 -8 -2 -12 4 -9 5 3 14 -4 20
-15 9 -18 14 -19 26 -9 13 10 17 10 25 -2 6 -10 9 -10 9 -1 0 7 8 4 20 -8 11
-11 27 -20 35 -20 7 0 18 -6 22 -12 4 -7 17 -18 27 -24 11 -6 22 -17 25 -25 4
-12 2 -12 -12 0 -15 12 -17 11 -17 -4 0 -14 -3 -15 -15 -5 -11 9 -15 9 -15 1
0 -7 -4 -10 -9 -7 -5 4 -7 -3 -4 -15 5 -17 2 -19 -20 -14 -14 4 -35 1 -48 -5
-18 -10 -21 -10 -17 1 8 21 -15 39 -29 23 -7 -6 -11 -14 -10 -16 1 -2 -4 3
-10 11 -10 11 -13 12 -13 2 0 -8 -6 -11 -15 -7 -17 6 -47 -3 -41 -13 3 -4 1
-13 -5 -21 -7 -12 -9 -10 -9 7 0 13 9 27 21 34 21 11 21 11 -6 25 -36 18 -38
18 -30 -7 5 -13 3 -19 -3 -15 -20 12 -82 17 -82 7 0 -19 -17 -12 -23 9 -3 11
-1 18 4 14 5 -3 9 -1 9 3 0 13 -87 53 -115 53 -15 0 -25 6 -25 15 0 9 6 12 15
9 9 -4 15 0 15 9 0 9 -9 19 -20 22 -17 5 -18 10 -9 27 9 16 8 23 -2 29 -10 6
-15 2 -17 -16 -2 -17 -11 -25 -30 -28 l-27 -4 28 -2 c15 0 27 -5 27 -10 0 -4
-8 -8 -17 -7 -20 2 -83 33 -83 42 0 2 8 0 18 -5 10 -5 24 -6 31 -2 17 11 -13
35 -34 27 -10 -3 -15 1 -15 13 0 10 -7 24 -15 31 -8 7 -12 17 -8 24 3 6 0 6
-8 -1 -16 -15 -33 -17 -24 -3 3 6 -1 10 -10 10 -8 0 -20 11 -27 25 -6 13 -23
29 -37 34 -24 9 -24 9 -4 10 35 1 38 21 4 21 -17 0 -31 5 -31 11 0 5 6 7 13 3
6 -4 5 1 -4 10 -9 9 -25 18 -37 19 -11 0 -19 5 -16 9 3 4 11 5 19 1 8 -3 15
-1 15 4 0 13 -43 14 -52 0 -5 -7 -6 0 -2 15 6 28 -16 64 -31 50 -5 -4 -6 0 -2
9 5 15 -46 225 -58 237 -2 3 -8 -9 -11 -26 -4 -18 -11 -29 -16 -26 -5 3 -6 -6
-2 -22 4 -15 3 -25 -2 -21 -5 3 -10 -9 -10 -26 -1 -18 -7 -50 -13 -72 -7 -22
-18 -62 -25 -88 -6 -27 -16 -44 -20 -40 -5 5 -6 2 -1 -6 4 -7 7 -42 6 -77 -1
-46 2 -64 11 -64 9 0 10 -3 2 -8 -17 -11 -22 -35 -13 -59 5 -13 5 -23 0 -23
-11 0 -4 -154 10 -215 6 -27 13 -72 16 -100 2 -27 11 -60 19 -72 18 -29 18
-63 -1 -90 -13 -18 -12 -34 10 -142 14 -67 25 -131 25 -141 0 -11 15 -68 34
-127 19 -60 44 -144 56 -188 38 -139 72 -227 124 -318 28 -48 56 -96 61 -106
19 -33 39 -53 62 -62 19 -7 22 -14 17 -34 -4 -16 -2 -25 6 -25 7 0 10 -7 6
-15 -3 -9 0 -15 8 -15 12 0 76 -91 76 -108 0 -4 14 -27 30 -52 34 -52 36 -60
14 -60 -10 0 -14 5 -10 15 3 10 -1 18 -12 22 -9 4 -20 11 -24 17 -6 7 -11 6
-18 -4 -11 -17 14 -31 40 -22 12 4 13 2 3 -9 -14 -14 -17 -30 -5 -28 4 1 15 1
26 0 15 -1 16 -4 6 -16 -10 -12 -7 -15 14 -21 20 -5 24 -9 16 -19 -8 -10 -4
-14 16 -19 16 -4 24 -12 21 -20 -3 -8 3 -16 15 -19 14 -4 19 -11 15 -21 -4 -9
-3 -15 1 -15 27 4 44 -3 39 -15 -4 -9 2 -17 14 -21 10 -4 19 -15 19 -25 0 -9
9 -20 20 -23 13 -3 18 -11 14 -20 -3 -10 2 -18 15 -22 12 -4 18 -12 14 -20 -3
-8 2 -18 11 -21 9 -3 16 -15 16 -25 0 -10 7 -19 15 -19 8 0 15 -5 15 -10 0
-18 178 -11 184 7 3 7 -1 16 -9 19 -21 8 -19 26 2 22 10 -2 19 5 21 16 2 11 0
16 -7 12 -6 -4 -11 0 -11 9 0 12 6 15 20 10 16 -5 20 -2 20 14 0 12 -3 20 -7
19 -5 -2 -9 2 -10 7 -1 6 7 9 17 7 15 -2 20 3 20 17 0 12 -3 20 -7 19 -5 -2
-9 2 -10 7 -1 6 7 9 17 7 13 -2 20 2 20 14 0 12 -6 15 -25 11 -20 -3 -25 -1
-23 12 3 11 13 15 36 13 23 -1 32 2 32 13 0 8 -7 15 -16 15 -9 0 -14 6 -12 12
3 7 13 13 23 13 10 0 20 6 22 13 3 6 -2 12 -11 12 -9 0 -16 5 -16 11 0 6 6 9
12 7 12 -4 38 14 38 26 0 3 -7 6 -15 6 -8 0 -15 5 -15 11 0 6 9 9 19 6 23 -6
38 22 19 34 -7 4 -9 12 -4 16 5 4 11 2 13 -4 8 -22 23 -14 23 12 0 14 5 25 10
25 6 0 10 9 10 20 0 11 -4 20 -10 20 -5 0 -10 8 -10 17 0 14 3 13 20 -5 12
-12 25 -22 30 -22 11 0 -6 35 -29 59 -11 12 -11 16 0 20 7 2 15 -1 17 -7 7
-21 30 -13 25 8 -3 11 -9 20 -14 20 -5 0 -9 10 -9 22 0 20 1 20 18 5 24 -22
31 -21 25 3 -3 11 -9 18 -13 15 -4 -3 -10 5 -13 16 -3 12 -10 18 -16 14 -6 -3
-11 -1 -11 4 0 15 10 14 44 -4 16 -9 31 -14 33 -12 7 8 -9 37 -18 31 -10 -6
-12 19 -2 29 3 4 12 2 20 -5 24 -20 27 1 4 26 l-23 25 31 -4 c30 -4 42 7 21
20 -5 3 -10 13 -10 21 0 11 6 13 20 9 11 -4 20 -2 20 4 0 6 -4 11 -10 11 -5 0
-10 7 -10 16 0 12 7 15 25 12 29 -6 33 6 8 21 -15 8 -16 12 -5 23 10 10 16 10
32 0 24 -15 26 -5 3 20 -22 25 -3 48 23 27 16 -13 16 -12 6 8 -19 34 -15 46
13 41 21 -4 23 -2 15 13 -6 10 -19 21 -31 24 -19 6 -20 7 -2 20 15 11 19 11
26 -1 9 -16 37 -19 37 -5 0 5 -8 17 -17 27 -17 17 -16 17 15 11 30 -6 32 -5
22 13 -6 12 -15 18 -21 15 -5 -4 -9 1 -9 10 0 9 5 13 10 10 13 -8 13 1 0 25
-9 17 -6 18 36 16 41 -2 44 -1 29 10 -10 7 -22 11 -28 7 -6 -3 -7 -1 -3 6 4 6
13 8 19 4 7 -4 6 1 -2 11 -15 17 -56 19 -78 3 -8 -6 -20 -1 -34 12 -19 18 -20
21 -6 21 9 0 17 5 17 10 0 6 6 9 13 8 7 -2 11 5 9 16 -2 10 1 16 5 13 5 -3 15
-2 23 4 10 6 11 9 3 9 -7 0 -13 6 -13 14 0 8 -5 18 -12 22 -6 4 -8 3 -4 -4 4
-7 -7 -11 -34 -10 -24 0 -40 5 -40 13 0 10 -36 34 -62 41 -5 1 -9 2 -10 4 -2
1 -15 4 -30 6 -20 3 -28 0 -28 -10 0 -8 6 -16 13 -19 7 -2 8 -8 3 -13 -5 -5
-11 -4 -13 4 -3 7 -11 19 -19 26 -16 17 -19 30 -4 21 16 -10 12 21 -5 35 -16
13 -18 78 -2 98 14 18 3 15 -22 -7 -24 -21 -61 -17 -61 5 0 19 17 18 24 -2 6
-15 9 -15 30 5 14 13 29 19 39 15 10 -3 17 -1 17 6 0 6 4 9 9 5 5 -3 16 1 24
10 8 8 30 17 48 20 19 3 38 10 43 15 5 5 14 6 21 4 7 -3 16 -1 20 5 10 17 25
13 18 -6 -4 -10 -2 -14 4 -10 6 4 13 -2 16 -13 3 -11 0 -20 -5 -20 -6 0 -5 -6
2 -15 7 -8 9 -22 6 -32 -4 -9 -1 -20 6 -24 9 -6 9 -11 0 -22 -10 -12 -9 -16 3
-21 8 -3 15 -13 15 -23 0 -13 -3 -14 -12 -5 -7 7 -16 12 -20 12 -12 0 -10 -28
4 -36 7 -4 8 -3 4 4 -9 15 -1 15 25 2 10 -6 19 -18 19 -28 0 -14 2 -15 10 -2
11 18 40 19 59 2 9 -8 17 -9 25 -3 7 6 17 6 26 1 10 -7 11 -10 3 -10 -7 0 -13
-8 -13 -17 0 -15 2 -15 9 -4 5 8 16 11 25 8 20 -8 20 -4 1 33 l-15 30 25 -10
c35 -13 42 -13 27 2 -19 19 -15 41 8 35 17 -4 18 -1 13 25 -6 29 -5 30 17 18
22 -12 23 -11 17 19 -6 29 -5 32 14 26 19 -6 21 -4 15 20 -6 24 -5 26 15 20
19 -6 21 -4 15 19 -6 25 -5 26 20 20 22 -6 25 -4 18 7 -18 29 -13 41 13 34 19
-4 23 -3 17 7 -18 29 -13 40 14 33 21 -5 24 -4 15 6 -17 17 -4 41 19 34 16 -6
18 -3 12 21 -6 24 -5 26 15 21 17 -4 21 -1 21 20 0 19 4 23 19 18 16 -5 18 -2
14 16 -6 20 -3 21 22 15 25 -6 27 -5 16 8 -8 9 -23 16 -35 16 -20 1 -20 1 3
14 15 8 20 16 12 20 -19 12 -13 47 10 53 21 6 21 13 4 70 -4 14 -3 23 3 23 6
0 13 -18 17 -40 8 -47 20 -52 30 -12 3 15 28 72 55 127 27 55 65 141 85 190
20 50 67 153 105 230 37 77 71 151 75 165 12 39 75 203 86 224 8 13 7 16 -1
11 -9 -5 -9 -2 -1 14 6 12 16 30 21 41 6 12 8 25 5 30 -3 4 3 16 12 26 13 13
15 18 5 22 -9 3 -10 8 -3 16 15 18 40 123 36 147 -3 15 0 19 10 15 8 -3 15 -1
15 4 0 6 -4 10 -9 10 -5 0 -4 13 2 30 6 17 15 30 20 30 4 0 5 5 1 11 -4 6 -10
26 -14 44 -6 26 -4 32 6 28 8 -3 11 2 7 15 -17 68 130 33 253 -60 95 -72 155
-98 228 -98 77 0 144 -19 216 -62 60 -36 109 -95 167 -201 37 -67 40 -70 108
-97 67 -26 102 -36 225 -66 72 -17 172 -52 184 -64 6 -6 21 -10 33 -10 26 0
79 -24 101 -46 7 -8 22 -14 31 -14 10 0 36 -7 57 -16 21 -9 83 -29 138 -46
100 -29 202 -83 301 -158 72 -55 191 -123 258 -149 76 -28 108 -45 187 -97 39
-25 91 -49 129 -59 109 -28 191 -71 254 -133 36 -36 57 -50 57 -40 0 9 -29 43
-65 75 -59 55 -74 63 -182 98 -65 21 -131 48 -148 60 -50 36 -166 98 -245 131
-85 34 -116 52 -180 105 -25 20 -81 58 -125 84 -44 26 -87 52 -95 59 -8 7 -49
23 -90 35 -161 49 -207 65 -275 98 -38 18 -75 33 -83 33 -7 0 -40 11 -73 26
-34 14 -122 41 -197 60 -75 19 -162 46 -192 60 -47 21 -59 32 -82 77 -36 68
-125 179 -165 207 -48 33 -149 67 -223 75 -36 4 -71 10 -77 14 -21 11 20 64
97 126 83 66 94 88 111 211 6 49 20 115 30 148 11 32 19 69 19 81 0 30 -35 73
-74 89 -18 7 -63 44 -102 80 l-69 67 28 15 c15 8 27 19 27 24 0 4 16 14 35 20
47 15 64 51 71 147 4 43 13 89 20 103 18 34 43 96 59 146 7 23 26 61 42 85 81
121 91 147 113 294 15 106 30 164 58 235 19 45 26 80 25 115 -2 37 3 58 21 85
26 40 88 144 104 176 7 12 16 74 22 138 11 115 11 116 -16 176 l-27 61 22 82
c13 45 25 106 28 135 7 71 -21 186 -58 239 -31 45 -89 161 -89 179 0 6 -9 22
-19 36 -11 13 -43 94 -72 179 -50 148 -79 214 -169 379 -72 131 -160 232 -345
394 -38 33 -99 87 -135 120 -111 99 -181 134 -375 184 -22 5 -98 31 -170 56
-224 79 -337 98 -428 72 -86 -25 -239 -25 -307 1 -30 11 -80 23 -110 27 -30 4
-59 11 -65 16 -5 4 -48 17 -95 28 -70 17 -129 21 -331 25 -150 3 -253 1 -263
-5z m2204 -514 c100 -76 289 -267 343 -347 68 -99 221 -446 205 -462 -2 -2
-19 37 -37 88 -36 99 -132 287 -156 307 -8 7 -15 19 -15 26 0 8 -5 14 -10 14
-6 0 -14 9 -18 19 -8 22 -130 151 -142 151 -5 0 -15 9 -23 20 -8 11 -16 18
-18 15 -3 -2 -11 5 -18 17 -11 18 -11 20 3 15 19 -7 21 4 4 21 -15 15 -42 16
-32 0 4 -7 3 -8 -4 -4 -6 4 -9 13 -6 20 6 15 -22 41 -45 41 -9 0 -15 8 -15 18
1 11 -5 17 -20 17 -25 1 -59 24 -49 34 4 3 -9 20 -28 36 -66 56 -18 29 81 -46z
m-2528 -747 c36 -3 59 0 61 7 3 8 8 7 18 -1 7 -7 23 -13 36 -13 25 0 29 -10
11 -28 -18 -18 15 -26 78 -18 52 6 55 5 49 -14 -4 -14 -2 -20 8 -20 23 0 27
11 10 28 -14 14 -13 16 6 24 11 4 31 3 44 -2 17 -7 18 -9 5 -9 -22 -1 -23 -17
-2 -25 8 -3 12 -10 9 -16 -6 -9 1 -12 23 -9 4 1 6 5 5 9 -4 16 59 23 68 9 5
-8 9 -10 9 -6 0 4 9 3 20 -3 14 -8 20 -8 20 0 0 14 42 2 52 -14 5 -6 8 -7 8
-1 0 6 5 2 11 -8 6 -9 15 -14 21 -11 7 5 8 2 4 -5 -5 -8 -1 -14 12 -18 14 -3
19 -10 15 -21 -5 -14 -4 -15 8 -4 12 11 11 15 -4 27 -19 13 -7 32 13 20 6 -3
10 1 10 10 0 11 9 7 30 -15 17 -17 30 -34 30 -38 0 -4 -7 1 -14 11 -7 9 -22
17 -32 16 -17 0 -17 -2 4 -16 25 -18 30 -38 6 -29 -11 4 -14 2 -11 -6 3 -7 8
-21 12 -30 4 -11 3 -18 -5 -18 -6 0 -8 4 -5 10 3 6 -1 7 -9 4 -20 -8 -21 -24
-1 -24 17 0 9 -29 -13 -45 -14 -12 -7 -65 9 -65 12 0 11 7 -2 32 -6 12 -7 18
-1 14 5 -3 13 1 16 10 5 13 9 14 21 4 8 -7 15 -9 15 -4 0 5 5 2 10 -7 11 -18
1 -67 -10 -49 -5 8 -9 7 -13 -5 -4 -10 -3 -14 4 -10 6 4 13 -2 16 -13 3 -14
11 -18 26 -14 12 3 19 1 15 -3 -4 -5 -3 -14 3 -22 9 -10 8 -13 -4 -13 -18 0
-13 -25 9 -47 9 -10 14 -10 23 1 9 11 9 15 -1 19 -7 3 -8 6 -2 6 6 1 23 -11
37 -25 23 -22 28 -24 33 -10 3 9 10 14 15 11 4 -3 6 -12 2 -20 -10 -29 15 -15
29 15 15 35 28 38 35 10 3 -11 11 -20 18 -20 8 0 20 -3 29 -6 10 -4 16 -1 16
9 0 9 4 19 10 22 6 4 7 -1 3 -11 -4 -11 -2 -15 4 -11 6 4 24 0 39 -8 16 -8 37
-15 47 -15 9 0 17 -4 17 -8 0 -5 6 -9 14 -9 8 0 14 5 13 10 -1 5 4 12 11 14
14 6 16 -23 2 -32 -6 -4 -8 -10 -5 -15 3 -4 -5 -6 -17 -3 -18 4 -20 2 -8 -6
12 -8 12 -11 -3 -17 -10 -3 -16 -11 -15 -18 3 -13 -4 -16 -33 -16 -13 0 -18 4
-13 13 6 9 5 9 -7 0 -8 -7 -24 -10 -35 -7 -12 3 -26 -1 -33 -10 -15 -17 -56
-22 -46 -6 3 6 3 15 0 21 -4 6 -18 -2 -35 -21 -23 -26 -31 -29 -53 -21 -14 5
-28 15 -32 20 -9 16 -22 13 -22 -4 0 -8 4 -15 9 -15 4 0 8 -4 8 -10 0 -5 -7
-7 -15 -4 -8 3 -24 -1 -37 -10 -12 -9 -27 -16 -33 -16 -5 0 -5 4 2 8 7 5 -1
11 -23 18 -29 10 -34 9 -32 -5 2 -9 -3 -15 -10 -13 -10 2 -10 -2 -2 -17 5 -11
15 -23 20 -26 6 -4 8 -9 6 -13 -7 -11 337 -4 464 9 178 18 396 2 543 -42 80
-24 141 -72 169 -136 20 -46 12 -43 128 -48 19 -1 54 -7 76 -14 38 -10 42 -15
46 -46 5 -45 2 -48 -33 -30 -15 8 -46 15 -69 15 -29 0 -40 4 -40 15 0 19 -16
19 -24 0 -3 -8 -9 -15 -13 -14 -28 5 -31 -7 -36 -138 -6 -161 -28 -261 -84
-371 -40 -80 -114 -156 -160 -165 -26 -5 -24 -2 17 32 122 99 137 122 171 266
20 84 24 127 24 265 0 160 -1 167 -28 222 -31 63 -90 110 -161 129 -148 40
-416 50 -617 24 -311 -41 -402 -124 -370 -336 25 -163 94 -333 185 -457 52
-70 58 -87 20 -51 -93 86 -226 385 -240 540 -4 39 -13 74 -20 80 -8 6 -14 22
-14 35 0 21 -5 23 -57 26 -32 2 -91 -1 -132 -6 -70 -9 -74 -11 -87 -42 -8 -18
-18 -35 -23 -38 -5 -4 -10 -45 -10 -92 0 -48 -5 -92 -11 -99 -5 -6 -8 -21 -5
-34 2 -14 0 -19 -7 -15 -7 5 -9 -1 -4 -19 3 -14 2 -28 -3 -32 -5 -3 -9 -13 -9
-23 0 -9 -12 -53 -27 -97 -52 -149 -166 -304 -228 -311 -12 -1 -22 -3 -22 -4
0 -1 -11 -4 -25 -6 -14 -3 -42 -14 -64 -25 -21 -11 -88 -27 -147 -36 -109 -17
-138 -28 -76 -30 17 -1 60 -4 95 -7 46 -3 79 0 123 14 32 11 67 16 76 13 11
-4 14 -3 9 5 -4 7 -1 12 9 12 30 0 136 81 173 133 20 28 61 83 90 121 38 51
58 89 72 140 39 138 54 182 82 236 15 30 28 61 28 68 0 33 46 85 68 77 7 -3
10 0 7 5 -12 19 14 10 34 -11 15 -16 18 -26 11 -40 -13 -23 -13 -42 0 -34 6 3
10 2 10 -3 0 -12 -45 -42 -63 -42 -21 0 -26 -43 -11 -80 18 -42 25 -122 12
-138 -8 -9 -8 -24 1 -51 8 -27 8 -47 1 -66 -6 -17 -7 -24 0 -20 15 9 12 -16
-4 -34 -10 -11 -12 -21 -5 -31 8 -13 10 -13 19 0 10 13 11 13 9 0 -4 -35 1
-51 14 -44 6 4 5 -1 -4 -12 -8 -10 -14 -29 -14 -41 2 -15 -2 -20 -13 -16 -11
5 -13 1 -7 -18 4 -13 12 -25 16 -27 5 -2 9 -10 9 -18 0 -8 7 -17 15 -20 8 -4
15 -12 15 -19 0 -8 8 -11 20 -8 11 3 20 1 20 -3 0 -5 11 -9 25 -9 14 0 25 4
25 8 0 5 5 5 10 2 22 -13 8 -36 -30 -51 -23 -9 -38 -19 -36 -22 3 -3 2 -10 -3
-16 -5 -6 -11 -24 -12 -41 -2 -16 -12 -37 -21 -46 -10 -9 -15 -19 -11 -23 3
-3 1 -6 -5 -6 -19 0 -69 -52 -54 -57 6 -3 12 -11 12 -19 0 -8 6 -14 13 -14 9
0 9 -2 -1 -9 -11 -7 -10 -9 3 -15 9 -3 13 -10 10 -16 -3 -5 0 -10 8 -10 18 0
30 -27 15 -32 -6 -2 -12 -15 -14 -29 -1 -13 -3 -26 -3 -28 -1 -2 -8 2 -16 9
-8 7 -15 10 -15 6 0 -4 -15 1 -32 11 -44 23 -54 24 -86 7 -30 -15 -52 -18 -52
-6 0 4 -9 8 -19 8 -11 0 -17 -4 -15 -8 5 -8 -9 -12 -32 -9 -7 1 -14 -5 -18
-14 -3 -8 -10 -15 -16 -15 -6 0 -8 5 -5 10 9 15 -48 12 -64 -2 -11 -10 -14
-10 -18 -1 -3 8 -10 9 -21 3 -9 -5 -25 -11 -35 -14 -10 -3 -16 -10 -12 -15 3
-5 0 -13 -6 -17 -8 -4 -9 -3 -5 4 4 7 2 12 -3 12 -6 0 -11 -5 -11 -11 0 -5 -4
-7 -10 -4 -5 3 -10 2 -10 -3 0 -5 -11 -14 -25 -20 -16 -8 -25 -20 -25 -35 0
-13 -5 -28 -11 -34 -8 -8 -6 -11 7 -10 11 1 23 7 27 12 5 6 7 0 4 -13 -3 -12
-1 -20 4 -16 5 3 9 14 9 25 0 30 18 59 37 59 10 0 14 -6 10 -20 -3 -11 -1 -23
4 -26 5 -3 6 -10 3 -16 -4 -7 -2 -8 4 -4 7 4 12 19 12 34 l1 27 19 -24 c11
-13 20 -31 20 -40 0 -40 104 -56 114 -18 2 10 9 16 15 13 5 -4 11 4 13 16 2
13 9 24 16 24 6 1 15 3 20 4 4 1 10 2 14 1 4 0 27 -2 51 -2 35 -2 44 -6 41
-18 -10 -49 -10 -91 -1 -94 6 -2 3 -6 -6 -10 -14 -5 -17 0 -17 25 0 17 -3 28
-7 24 -5 -4 -8 -27 -8 -51 -1 -41 1 -43 32 -47 32 -4 32 -4 29 37 -2 22 -2 33
1 24 7 -28 61 -79 83 -79 17 0 20 4 15 20 -7 24 22 29 31 6 4 -11 28 -15 97
-16 51 -1 111 -2 134 -2 28 0 44 -6 48 -16 5 -13 9 -11 27 7 17 19 27 22 57
16 20 -4 41 -11 48 -16 7 -7 14 -6 18 1 8 12 45 13 64 1 17 -11 7 -77 -14 -84
-7 -3 -25 3 -38 14 -29 22 -37 24 -37 6 0 -7 -7 -23 -16 -35 -13 -19 -18 -20
-37 -11 -11 7 -29 21 -39 33 -15 18 -17 19 -18 4 0 -39 -67 -58 -120 -34 -12
5 -19 -3 -29 -29 -7 -20 -10 -39 -7 -42 3 -4 6 -1 6 5 0 7 11 11 25 10 30 -3
20 -15 -23 -27 -23 -7 -34 -6 -43 5 -16 20 -28 17 -22 -5 4 -15 -2 -22 -29
-29 -40 -11 -159 -5 -173 9 -5 5 -23 9 -40 9 -38 0 -66 16 -47 28 8 6 10 19 6
41 -6 29 -8 30 -24 16 -9 -8 -26 -15 -38 -15 -11 0 -24 -5 -27 -11 -5 -7 -14
-4 -26 7 -18 16 -21 16 -35 2 -20 -20 -3 -61 22 -51 14 5 15 1 9 -25 -7 -35
-11 -33 77 -36 20 -1 42 -6 49 -13 6 -6 17 -9 25 -6 8 3 12 -3 11 -17 -1 -15
-10 -23 -29 -27 -30 -6 -36 -21 -16 -41 17 -17 1 -27 -18 -11 -15 12 -17 12
-12 0 7 -22 96 -46 165 -45 32 1 40 -2 36 -13 -3 -8 -8 -12 -11 -9 -6 7 -62
-22 -62 -33 0 -5 -11 -11 -25 -13 -13 -3 -22 -2 -20 2 8 12 -31 18 -49 8 -9
-5 -16 -16 -16 -24 0 -8 -7 -17 -15 -20 -8 -4 -15 -11 -15 -16 0 -6 -8 -17
-17 -25 -17 -13 -17 -14 2 -9 92 22 100 19 63 -22 l-23 -24 24 7 c15 5 21 4
17 -3 -3 -6 3 -13 14 -17 20 -7 28 -25 10 -25 -18 0 -10 -39 9 -45 11 -3 23
-15 26 -26 4 -11 13 -18 20 -15 8 3 11 -2 8 -14 -3 -11 -10 -18 -16 -17 -6 1
-11 -3 -12 -10 0 -6 -4 -15 -9 -20 -5 -5 -6 -3 -2 5 9 15 -10 17 -19 2 -4 -6
-1 -18 6 -26 10 -13 8 -13 -15 -5 -22 9 -26 8 -27 -9 -1 -11 -2 -26 -3 -32 -1
-7 7 -12 16 -12 16 2 16 -1 -2 -23 -11 -14 -20 -32 -20 -40 0 -9 -6 -13 -14
-10 -17 7 -36 -12 -36 -36 0 -13 -6 -18 -22 -15 -19 2 -23 9 -21 33 1 25 -3
20 -27 -30 -19 -39 -29 -52 -29 -38 -1 34 -36 25 -56 -15 -19 -41 -30 -37 -15
4 9 23 9 27 -1 17 -20 -20 -26 -15 -21 18 3 22 1 30 -7 25 -6 -4 -8 -12 -5
-18 4 -6 2 -8 -4 -4 -6 3 -13 20 -17 36 -6 25 -9 28 -25 20 -10 -6 -20 -10
-22 -10 -8 0 -3 46 6 60 9 13 8 13 -7 1 -10 -8 -17 -9 -17 -3 0 6 -11 9 -25 6
-18 -3 -25 0 -25 11 0 9 5 13 10 10 6 -3 10 4 10 17 0 17 -3 19 -9 9 -11 -18
-31 -5 -31 19 0 13 -5 18 -16 13 -10 -4 -17 1 -21 16 -3 11 -10 18 -15 15 -6
-4 -8 2 -3 15 5 16 3 20 -9 15 -16 -6 -49 18 -41 30 3 3 -1 2 -7 -4 -18 -15
-28 -12 -28 7 0 9 -3 14 -6 10 -8 -8 -33 16 -27 25 2 4 -2 5 -9 3 -18 -7 -41
-45 -28 -45 5 0 10 5 10 10 0 6 4 10 8 10 13 0 8 -53 -5 -58 -7 -2 -13 4 -13
12 0 12 -6 15 -24 10 -19 -4 -24 -1 -28 20 -3 14 -1 26 3 26 5 0 9 5 9 11 0 5
-4 7 -10 4 -13 -8 -13 1 0 25 7 13 6 21 -4 29 -10 9 -15 8 -20 -5 -3 -9 -4
-20 -1 -24 3 -5 1 -12 -5 -15 -6 -4 -9 -1 -8 7 2 8 -6 13 -19 12 -15 0 -20 5
-18 18 2 10 0 18 -6 18 -5 0 -19 10 -30 21 -17 17 -20 29 -15 58 3 23 2 31 -4
22 -7 -12 -11 -12 -24 -2 -8 7 -20 10 -26 6 -5 -3 -10 1 -10 11 0 14 -2 14
-16 3 -14 -11 -16 -10 -12 11 2 17 -1 24 -11 22 -10 -2 -12 5 -8 30 3 18 3 27
0 21 -6 -17 -23 -16 -23 1 0 8 -8 17 -18 21 -9 3 -17 5 -17 4 0 -1 -10 3 -22
10 -25 13 -32 37 -8 27 18 -7 20 5 3 22 -9 9 -9 12 -1 12 7 0 15 -4 18 -10 3
-5 10 -10 15 -10 22 0 -37 69 -65 76 -16 4 -24 9 -17 11 6 3 12 9 12 14 0 4
-6 6 -14 3 -11 -4 -13 0 -10 18 5 21 4 22 -9 6 -8 -10 -17 -15 -20 -11 -4 3 4
16 16 27 13 12 22 28 20 36 -3 11 0 10 10 -2 8 -10 17 -15 20 -11 4 3 7 -3 7
-15 0 -11 6 -25 13 -29 8 -4 16 -16 20 -25 3 -10 11 -18 17 -18 5 0 10 8 10
18 0 18 -19 54 -20 37 -1 -5 -11 19 -23 55 -13 36 -29 74 -37 85 -17 23 -54
31 -46 10 2 -7 -2 -21 -10 -32 -14 -17 -14 -16 -4 5 11 22 -2 33 -15 12 -14
-22 -35 -8 -45 31 -6 23 -15 49 -20 58 -5 9 -14 31 -20 49 -7 17 -17 32 -22
32 -6 0 -8 9 -5 20 3 11 1 22 -4 25 -5 3 -7 19 -5 35 2 16 -1 27 -5 24 -5 -3
-9 -2 -10 3 0 4 -2 15 -4 23 -18 78 -26 138 -26 208 0 117 5 166 61 522 7 46
4 70 -16 140 -13 47 -27 123 -32 170 -7 82 -8 85 -32 86 -14 0 -37 -3 -52 -7
-21 -6 -31 -3 -39 9 -10 16 -10 16 -5 0 3 -10 4 -18 2 -18 -3 0 -11 -3 -20 -6
-12 -5 -16 1 -16 23 0 45 30 66 101 71 l60 4 30 60 c31 62 65 102 112 131 31
20 53 62 62 120 3 20 11 37 17 37 5 0 7 7 4 16 -5 12 -2 15 11 10 10 -4 14 -4
11 -1 -4 4 -3 17 2 30 5 14 5 26 -3 34 -8 8 -8 11 1 11 7 0 12 8 13 18 0 10 3
12 6 5 2 -7 9 -13 15 -13 6 0 7 7 4 16 -3 8 -2 12 4 9 14 -9 13 -35 -2 -35 -6
0 -9 -2 -6 -5 3 -3 12 -3 21 1 12 4 14 11 8 22 -5 9 -4 27 4 46 7 17 10 36 8
43 -3 7 3 9 16 6 15 -4 21 -1 21 11 0 9 5 16 10 16 6 0 10 11 10 24 0 14 5 28
10 31 6 3 10 13 10 21 0 22 36 58 45 44 4 -6 5 -16 2 -23 -2 -7 -1 -20 2 -29
5 -14 11 -12 42 15 20 18 34 38 31 45 -2 7 0 12 5 11 17 -3 24 1 18 11 -4 6
-16 3 -33 -8 -25 -16 -26 -16 -19 1 4 11 3 16 -3 12 -6 -3 -10 -1 -10 4 0 6 4
11 10 11 5 0 17 14 26 31 13 25 18 29 26 18 7 -10 8 -8 5 9 -3 12 -1 23 4 23
12 2 28 6 34 9 5 3 19 6 33 9 4 1 0 5 -8 11 -8 5 -12 12 -8 15 9 10 48 -18 49
-35 0 -9 4 -7 11 8 6 12 16 22 22 23 6 0 1 4 -12 10 -17 6 -22 14 -17 28 3 11
1 22 -5 26 -15 9 38 65 61 65 10 0 20 4 24 9 3 5 31 13 63 17 31 5 47 10 35
12 -13 2 -23 5 -23 8 0 13 25 41 34 38 6 -2 37 -5 68 -7z m-928 -1814 c-4 -15
-8 -35 -9 -43 -1 -8 -6 -26 -10 -40 -12 -38 -14 -70 -5 -70 5 0 5 -12 1 -27
-29 -96 -38 -209 -18 -229 3 -3 3 -13 0 -21 -3 -8 0 -19 7 -23 22 -14 32 -173
14 -232 -5 -16 6 -30 50 -66 15 -12 12 -41 -6 -53 -4 -3 -9 -17 -10 -32 -4
-43 -40 -45 -85 -4 -35 31 -38 76 -13 146 l23 61 -18 113 c-10 61 -22 122 -26
135 -5 12 -11 64 -13 115 l-5 92 17 -97 c10 -53 21 -100 25 -104 4 -4 7 22 7
58 0 36 5 90 11 119 6 30 13 63 14 74 1 11 5 34 9 50 4 17 12 51 19 78 7 29
14 44 20 38 6 -6 6 -22 1 -38z m1172 -3278 c10 -2 26 -4 34 -4 21 -1 42 -55
27 -70 -8 -8 -6 -11 6 -11 9 0 17 4 17 9 0 10 26 9 36 -2 4 -4 15 -7 25 -7 12
0 16 -5 13 -15 -4 -8 -10 -12 -15 -9 -5 3 -9 0 -9 -6 0 -7 -7 -5 -16 4 -19 20
-23 20 -43 2 -20 -18 -75 -10 -67 10 3 8 -6 15 -22 19 -71 15 -123 75 -66 75
14 0 22 4 19 10 -3 6 1 7 9 4 10 -4 16 -1 16 7 0 12 2 12 9 1 4 -7 17 -15 27
-17z m84 -230 c0 -8 9 -15 20 -15 11 0 20 -4 20 -10 0 -5 6 -10 14 -10 19 0
40 -26 26 -35 -5 -3 -10 -2 -10 3 0 6 -7 12 -15 16 -16 6 -16 -14 0 -26 5 -4
7 -10 3 -13 -3 -4 -15 2 -26 13 -11 11 -23 18 -26 15 -7 -7 19 -33 33 -33 6 0
16 -10 22 -22 11 -21 11 -22 -5 -9 -14 12 -16 12 -10 -3 4 -10 18 -22 33 -28
25 -10 25 -11 6 -18 -29 -12 -35 -12 -35 5 0 8 -5 15 -11 15 -5 0 -7 -5 -3
-11 4 -8 -1 -9 -17 -4 -24 8 -24 8 -5 -14 11 -12 26 -19 34 -16 15 5 45 -19
35 -29 -4 -3 2 -13 13 -20 26 -20 9 -32 -25 -19 -17 6 -35 7 -42 2 -8 -5 -22
-6 -31 -3 -10 3 -18 1 -18 -4 0 -5 9 -12 21 -15 12 -3 18 -10 14 -16 -3 -6 -1
-11 4 -11 6 0 11 -4 11 -9 0 -5 -12 -6 -27 -2 -18 5 -28 14 -28 27 0 15 -6 19
-35 17 -27 -2 -30 0 -15 6 l20 9 -20 8 c-23 10 -31 34 -11 34 8 0 17 7 20 16
3 8 2 12 -4 9 -6 -3 -10 -1 -10 4 0 6 -7 11 -15 11 -8 0 -15 5 -15 10 0 6 -6
10 -14 10 -17 0 -28 38 -12 43 6 3 18 -2 27 -10 18 -15 49 -8 49 12 0 8 -11
15 -25 17 -14 2 -24 8 -23 13 2 6 5 9 8 9 3 -1 16 -5 29 -9 21 -6 22 -5 10 8
-8 8 -17 13 -21 11 -4 -2 -9 0 -12 5 -8 13 19 32 37 25 11 -4 17 3 22 25 7 31
35 44 35 16z"/>
<path d="M2504 6104 c-33 -17 -104 -83 -104 -97 0 -5 10 -6 23 -2 12 4 32 6
45 6 13 -1 21 2 19 7 -3 4 9 8 26 8 18 1 64 4 102 7 39 4 162 9 275 12 113 3
219 8 237 11 38 7 47 25 27 51 -9 10 -13 13 -10 6 11 -20 -12 -25 -39 -7 -24
16 -25 16 -19 -1 6 -15 3 -17 -20 -11 -15 4 -46 9 -68 12 -32 5 -39 3 -32 -7
6 -12 5 -12 -8 -1 -10 8 -19 9 -22 3 -4 -6 -18 -6 -39 0 -41 12 -124 12 -132
0 -7 -12 -85 -12 -85 0 0 17 -53 5 -58 -13 -2 -10 -12 -19 -21 -19 -9 -1 -31
-3 -48 -5 -18 -2 -33 1 -33 6 0 6 6 10 14 10 21 0 28 16 13 28 -9 8 -21 7 -43
-4z"/>
<path d="M3558 6052 c-32 -2 -58 -7 -58 -12 0 -5 -16 -6 -36 -3 -34 6 -36 5
-29 -17 5 -14 3 -20 -3 -16 -6 3 -13 0 -15 -6 -4 -10 -6 -10 -6 0 -1 6 -10 12
-21 12 -11 0 -20 6 -20 13 0 10 -22 12 -97 10 -84 -3 -197 -9 -213 -13 -3 0
21 -11 53 -24 81 -33 104 -51 136 -101 28 -44 41 -48 41 -15 0 29 50 43 177
48 l122 4 25 -27 c17 -19 26 -23 26 -13 0 8 13 34 30 56 28 40 73 69 149 98
33 13 27 13 -84 11 -66 -1 -146 -3 -177 -5z"/>
<path d="M2508 5990 c-203 -38 -319 -93 -356 -167 -26 -52 -55 -141 -48 -151
3 -4 6 -32 7 -61 2 -34 10 -62 22 -77 10 -13 14 -24 8 -24 -13 0 -4 -82 13
-125 8 -18 11 -36 8 -40 -4 -3 2 -3 12 1 12 5 14 9 6 14 -9 6 -9 9 0 15 7 4
16 2 20 -5 5 -8 10 -4 15 12 l8 23 4 -24 c4 -17 -3 -30 -23 -46 l-28 -22 19
-44 c37 -87 97 -159 155 -189 122 -62 444 -48 622 29 143 61 263 321 275 597
5 105 3 126 -14 165 -24 54 -76 92 -158 115 -94 26 -438 29 -567 4z m-282
-217 c-3 -16 -3 -22 0 -15 6 14 54 17 54 3 0 -5 -13 -12 -30 -16 -16 -4 -33
-11 -36 -17 -4 -7 -2 -8 4 -4 11 6 17 -6 13 -27 -1 -9 50 -30 57 -23 6 7 32
-20 32 -33 0 -6 -12 -11 -27 -12 -16 0 -55 -2 -87 -5 -66 -5 -80 4 -65 44 11
28 78 132 86 132 3 0 3 -12 -1 -27z"/>
<path d="M2888 4816 c3 -5 -2 -7 -10 -3 -12 4 -14 1 -11 -14 4 -15 0 -19 -23
-19 -15 0 -25 -3 -21 -6 8 -8 -59 -54 -78 -54 -14 0 -19 -15 -18 -48 1 -7 -1
-11 -4 -9 -2 3 -18 -9 -35 -26 -17 -18 -34 -31 -39 -30 -5 2 -8 -3 -6 -10 1
-6 -4 -11 -12 -9 -9 2 -12 -5 -9 -23 4 -18 1 -25 -10 -25 -8 0 -12 -3 -9 -7 4
-3 2 -12 -4 -19 -11 -14 -25 -133 -14 -122 4 4 13 1 20 -5 11 -10 10 -16 -3
-31 -16 -18 -16 -19 1 -13 9 4 17 2 17 -3 0 -6 7 -10 15 -10 8 0 15 -7 15 -15
0 -8 4 -15 10 -15 5 0 7 -7 4 -15 -4 -11 -2 -13 9 -9 13 4 15 -5 13 -61 -1
-60 0 -66 17 -61 14 3 22 -3 30 -25 11 -29 27 -39 27 -18 0 6 9 9 20 6 11 -3
27 1 34 9 17 17 36 18 36 3 0 -5 5 -7 10 -4 6 4 8 10 5 15 -3 4 2 11 11 14 15
6 55 -15 86 -46 10 -10 25 -18 33 -18 7 0 18 -7 22 -15 6 -9 13 -11 23 -5 12
8 11 13 -8 33 -24 26 -21 38 9 30 11 -3 20 -15 20 -27 1 -17 2 -17 6 -3 6 22
23 22 23 0 0 -15 2 -14 15 3 20 27 19 32 -15 39 -21 5 -30 13 -30 26 0 12 -7
19 -19 19 -24 0 -32 12 -41 62 -7 35 -5 40 16 48 13 5 24 14 24 20 0 5 12 10
26 10 22 0 24 3 15 14 -11 13 -51 11 -51 -3 0 -3 -17 -6 -38 -5 -23 0 -36 5
-34 12 1 7 -3 12 -9 12 -5 0 -7 6 -4 13 3 6 -2 2 -11 -11 l-17 -23 -22 21
c-20 19 -21 26 -13 59 6 25 18 42 34 50 24 11 33 31 13 31 -5 0 -8 4 -5 9 3 4
-7 6 -22 4 -15 -2 -33 -5 -39 -5 -7 -1 -13 -4 -13 -8 0 -4 -21 -13 -47 -20
-27 -7 -54 -18 -62 -24 -12 -9 -13 -8 -8 7 3 9 2 17 -2 17 -5 0 -12 7 -15 16
-7 18 15 55 66 109 21 22 38 46 38 53 0 7 11 25 24 39 14 15 23 30 20 35 -3 4
-1 8 4 8 11 0 25 37 23 58 -1 6 5 12 13 12 8 0 17 3 19 8 3 4 -5 7 -18 7 -13
0 -21 -4 -17 -9z"/>
<path d="M5603 2381 c3 -11 1 -19 -4 -15 -5 3 -9 -4 -9 -15 0 -11 -3 -22 -8
-25 -4 -2 -7 10 -7 27 0 17 -6 32 -14 35 -10 3 -11 -2 -6 -18 5 -15 3 -20 -3
-16 -6 3 -13 -3 -15 -14 -3 -13 -4 -10 -3 7 1 19 -5 29 -16 31 -13 2 -15 -2
-11 -19 4 -16 3 -20 -6 -15 -8 6 -10 1 -6 -16 5 -18 2 -25 -8 -25 -11 0 -13 7
-7 29 5 15 5 30 0 33 -11 7 -23 -12 -15 -25 3 -5 2 -10 -4 -10 -5 0 -13 5 -16
10 -3 6 -13 10 -21 10 -11 0 -13 -7 -8 -27 7 -29 23 -45 35 -37 4 2 12 -3 19
-11 6 -7 18 -11 27 -8 13 5 13 3 2 -15 -7 -11 -18 -18 -24 -15 -7 2 -15 -3
-19 -12 -5 -13 -1 -15 15 -10 19 6 20 4 14 -25 -5 -23 -4 -30 4 -26 6 4 11 14
11 22 0 8 5 14 10 14 6 0 10 9 10 20 0 11 7 23 15 26 10 4 12 11 6 22 -7 14
-4 17 15 18 13 1 24 -3 24 -10 0 -6 9 4 20 21 14 23 25 31 37 27 17 -5 17 -5
0 6 -12 7 -17 21 -15 37 2 16 -3 28 -11 31 -10 3 -12 -1 -8 -17z"/>
<path d="M1287 2033 c-18 -18 -1 -34 67 -62 41 -17 81 -31 88 -31 15 0 329
-114 369 -134 22 -11 28 -11 38 3 10 14 11 13 6 -6 -4 -13 -2 -23 4 -23 6 0
11 5 11 10 0 6 4 10 9 10 5 0 7 -10 3 -22 -5 -23 -5 -23 17 -3 l22 19 -10 -27
c-12 -31 -6 -34 22 -9 19 17 20 16 8 -6 -16 -30 -7 -40 14 -18 22 22 28 20 15
-5 -15 -26 -6 -36 16 -18 15 12 16 11 10 -9 -7 -22 7 -31 19 -12 3 6 11 10 16
10 5 0 2 -11 -7 -25 -17 -26 -8 -34 15 -12 11 10 13 8 8 -10 -3 -16 -1 -23 9
-23 8 0 14 5 14 10 0 6 7 10 15 10 8 0 -9 21 -38 48 -29 26 -54 50 -57 53 -3
4 -36 27 -75 51 -66 43 -184 94 -232 101 -12 2 -31 11 -43 22 -11 10 -23 15
-26 12 -4 -3 -19 0 -35 9 -16 8 -29 12 -29 9 0 -3 -12 1 -28 9 -15 8 -41 16
-57 19 -17 2 -47 12 -69 21 -21 9 -43 13 -49 9 -5 -3 -7 -1 -4 4 4 6 -3 13
-16 17 -28 7 -32 7 -40 -1z"/>
</g>
</svg>
